<svg xmlns="http://www.w3.org/2000/svg" viewBox="0 0 1600 1200" width="1600" height="1200">
<defs><linearGradient id="g2" x1="0" y1="0" x2="0" y2="1"><stop offset="0%" stop-color="#16313d"/><stop offset="100%" stop-color="#071520"/></linearGradient></defs><rect width="1600" height="1200" fill="url(#g2)"/><circle cx="878" cy="261" r="8" fill="#E0B341" opacity="0.18"/><circle cx="1039" cy="689" r="38" fill="#E0B341" opacity="0.11"/><circle cx="1395" cy="1012" r="15" fill="#E0B341" opacity="0.08"/><circle cx="469" cy="380" r="27" fill="#E0B341" opacity="0.08"/><circle cx="670" cy="262" r="37" fill="#E0B341" opacity="0.10"/><circle cx="733" cy="750" r="37" fill="#E0B341" opacity="0.10"/><circle cx="1468" cy="662" r="25" fill="#E0B341" opacity="0.12"/><circle cx="30" cy="595" r="14" fill="#E0B341" opacity="0.05"/><circle cx="1279" cy="306" r="23" fill="#E0B341" opacity="0.14"/><circle cx="890" cy="472" r="25" fill="#E0B341" opacity="0.12"/><circle cx="1255" cy="235" r="26" fill="#E0B341" opacity="0.08"/><circle cx="443" cy="954" r="24" fill="#E0B341" opacity="0.12"/><circle cx="1216" cy="1105" r="22" fill="#E0B341" opacity="0.13"/><circle cx="809" cy="673" r="30" fill="#E0B341" opacity="0.11"/><circle cx="853" cy="636" r="38" fill="#E0B341" opacity="0.14"/><circle cx="1402" cy="1138" r="16" fill="#E0B341" opacity="0.12"/><circle cx="1509" cy="1027" r="12" fill="#E0B341" opacity="0.07"/><circle cx="707" cy="198" r="16" fill="#E0B341" opacity="0.06"/><circle cx="1071" cy="967" r="37" fill="#E0B341" opacity="0.07"/><circle cx="1146" cy="833" r="13" fill="#E0B341" opacity="0.16"/><circle cx="1548" cy="357" r="38" fill="#E0B341" opacity="0.10"/><circle cx="780" cy="1189" r="35" fill="#E0B341" opacity="0.07"/><circle cx="690" cy="677" r="19" fill="#E0B341" opacity="0.08"/><circle cx="510" cy="900" r="9" fill="#E0B341" opacity="0.12"/><circle cx="705" cy="140" r="19" fill="#E0B341" opacity="0.13"/><circle cx="820" cy="189" r="40" fill="#E0B341" opacity="0.15"/><circle cx="1555" cy="233" r="16" fill="#E0B341" opacity="0.06"/><circle cx="1246" cy="412" r="12" fill="#E0B341" opacity="0.10"/><circle cx="1360" cy="986" r="20" fill="#071520" opacity="0.85"/><rect x="1340" y="1005" width="39" height="59" rx="20" fill="#071520" opacity="0.85"/><circle cx="323" cy="1038" r="24" fill="#071520" opacity="0.85"/><rect x="299" y="1062" width="48" height="72" rx="24" fill="#071520" opacity="0.85"/><circle cx="1073" cy="607" r="17" fill="#071520" opacity="0.85"/><rect x="1056" y="623" width="34" height="50" rx="17" fill="#071520" opacity="0.85"/><circle cx="1056" cy="781" r="17" fill="#071520" opacity="0.85"/><rect x="1039" y="798" width="34" height="51" rx="17" fill="#071520" opacity="0.85"/><circle cx="1396" cy="890" r="27" fill="#071520" opacity="0.85"/><rect x="1369" y="917" width="54" height="82" rx="27" fill="#071520" opacity="0.85"/><circle cx="234" cy="1005" r="17" fill="#071520" opacity="0.85"/><rect x="217" y="1022" width="34" height="51" rx="17" fill="#071520" opacity="0.85"/><circle cx="1293" cy="796" r="21" fill="#071520" opacity="0.85"/><rect x="1273" y="817" width="41" height="62" rx="21" fill="#071520" opacity="0.85"/><circle cx="872" cy="1042" r="20" fill="#071520" opacity="0.85"/><rect x="852" y="1062" width="40" height="59" rx="20" fill="#071520" opacity="0.85"/><circle cx="296" cy="834" r="19" fill="#071520" opacity="0.85"/><rect x="276" y="853" width="39" height="58" rx="19" fill="#071520" opacity="0.85"/><circle cx="269" cy="644" r="17" fill="#071520" opacity="0.85"/><rect x="252" y="661" width="33" height="50" rx="17" fill="#071520" opacity="0.85"/><circle cx="394" cy="722" r="20" fill="#071520" opacity="0.85"/><rect x="374" y="743" width="41" height="61" rx="20" fill="#071520" opacity="0.85"/><circle cx="1153" cy="711" r="23" fill="#071520" opacity="0.85"/><rect x="1130" y="734" width="46" height="69" rx="23" fill="#071520" opacity="0.85"/><circle cx="362" cy="740" r="16" fill="#071520" opacity="0.85"/><rect x="346" y="757" width="33" height="49" rx="16" fill="#071520" opacity="0.85"/><circle cx="461" cy="568" r="26" fill="#071520" opacity="0.85"/><rect x="434" y="594" width="53" height="79" rx="26" fill="#071520" opacity="0.85"/><circle cx="869" cy="659" r="23" fill="#071520" opacity="0.85"/><rect x="847" y="681" width="45" height="68" rx="23" fill="#071520" opacity="0.85"/><circle cx="1391" cy="615" r="27" fill="#071520" opacity="0.85"/><rect x="1364" y="643" width="55" height="82" rx="27" fill="#071520" opacity="0.85"/>
<g font-family="Inter, Arial, sans-serif">
<rect x="34" y="1122" rx="20" ry="20" width="320" height="44" fill="rgba(7,21,32,.55)"/>
<circle cx="62" cy="1144" r="7" fill="#3BC9D9"/>
<text x="80" y="1150" fill="#EAF1F4" font-size="22" font-weight="600" letter-spacing="1">SAMPLE · event photography</text>
</g></svg>