<svg xmlns="http://www.w3.org/2000/svg" viewBox="0 0 1600 1200" width="1600" height="1200">
<defs><radialGradient id="g1" cx="50%" cy="22%" r="70%"><stop offset="0%" stop-color="#1d4d57"/><stop offset="55%" stop-color="#0D2233"/><stop offset="100%" stop-color="#071520"/></radialGradient></defs><rect width="1600" height="1200" fill="url(#g1)"/><rect x="500" y="120" width="600" height="300" rx="14" fill="#3BC9D9" opacity="0.16"/><rect x="540" y="150" width="520" height="240" rx="10" fill="#3BC9D9" opacity="0.28"/><circle cx="800" cy="430" r="26" fill="#071520"/><rect x="772" y="452" width="56" height="120" rx="22" fill="#071520"/><polygon points="800,150 470,560 1130,560" fill="#3BC9D9" opacity="0.08"/><circle cx="81" cy="560" r="10" fill="#071520" opacity="0.35"/><rect x="71" y="570" width="20" height="24" rx="10" fill="#071520" opacity="0.35"/><circle cx="163" cy="560" r="10" fill="#071520" opacity="0.35"/><rect x="153" y="570" width="20" height="24" rx="10" fill="#071520" opacity="0.35"/><circle cx="255" cy="560" r="10" fill="#071520" opacity="0.35"/><rect x="245" y="570" width="20" height="24" rx="10" fill="#071520" opacity="0.35"/><circle cx="330" cy="560" r="10" fill="#071520" opacity="0.35"/><rect x="320" y="570" width="20" height="24" rx="10" fill="#071520" opacity="0.35"/><circle cx="422" cy="560" r="10" fill="#071520" opacity="0.35"/><rect x="412" y="570" width="20" height="24" rx="10" fill="#071520" opacity="0.35"/><circle cx="503" cy="560" r="10" fill="#071520" opacity="0.35"/><rect x="493" y="570" width="20" height="24" rx="10" fill="#071520" opacity="0.35"/><circle cx="582" cy="560" r="10" fill="#071520" opacity="0.35"/><rect x="572" y="570" width="20" height="24" rx="10" fill="#071520" opacity="0.35"/><circle cx="674" cy="560" r="10" fill="#071520" opacity="0.35"/><rect x="664" y="570" width="20" height="24" rx="10" fill="#071520" opacity="0.35"/><circle cx="750" cy="560" r="10" fill="#071520" opacity="0.35"/><rect x="740" y="570" width="20" height="24" rx="10" fill="#071520" opacity="0.35"/><circle cx="841" cy="560" r="10" fill="#071520" opacity="0.35"/><rect x="831" y="570" width="20" height="24" rx="10" fill="#071520" opacity="0.35"/><circle cx="919" cy="560" r="10" fill="#071520" opacity="0.35"/><rect x="909" y="570" width="20" height="24" rx="10" fill="#071520" opacity="0.35"/><circle cx="1004" cy="560" r="10" fill="#071520" opacity="0.35"/><rect x="994" y="570" width="20" height="24" rx="10" fill="#071520" opacity="0.35"/><circle cx="1094" cy="560" r="10" fill="#071520" opacity="0.35"/><rect x="1084" y="570" width="20" height="24" rx="10" fill="#071520" opacity="0.35"/><circle cx="1184" cy="560" r="10" fill="#071520" opacity="0.35"/><rect x="1174" y="570" width="20" height="24" rx="10" fill="#071520" opacity="0.35"/><circle cx="1257" cy="560" r="10" fill="#071520" opacity="0.35"/><rect x="1247" y="570" width="20" height="24" rx="10" fill="#071520" opacity="0.35"/><circle cx="1343" cy="560" r="10" fill="#071520" opacity="0.35"/><rect x="1333" y="570" width="20" height="24" rx="10" fill="#071520" opacity="0.35"/><circle cx="1434" cy="560" r="10" fill="#071520" opacity="0.35"/><rect x="1424" y="570" width="20" height="24" rx="10" fill="#071520" opacity="0.35"/><circle cx="1523" cy="560" r="10" fill="#071520" opacity="0.35"/><rect x="1513" y="570" width="20" height="24" rx="10" fill="#071520" opacity="0.35"/><circle cx="81" cy="618" r="13" fill="#071520" opacity="0.40"/><rect x="69" y="631" width="25" height="30" rx="13" fill="#071520" opacity="0.40"/><circle cx="158" cy="618" r="13" fill="#071520" opacity="0.40"/><rect x="146" y="631" width="25" height="30" rx="13" fill="#071520" opacity="0.40"/><circle cx="248" cy="618" r="13" fill="#071520" opacity="0.40"/><rect x="235" y="631" width="25" height="30" rx="13" fill="#071520" opacity="0.40"/><circle cx="313" cy="618" r="13" fill="#071520" opacity="0.40"/><rect x="300" y="631" width="25" height="30" rx="13" fill="#071520" opacity="0.40"/><circle cx="406" cy="618" r="13" fill="#071520" opacity="0.40"/><rect x="393" y="631" width="25" height="30" rx="13" fill="#071520" opacity="0.40"/><circle cx="477" cy="618" r="13" fill="#071520" opacity="0.40"/><rect x="464" y="631" width="25" height="30" rx="13" fill="#071520" opacity="0.40"/><circle cx="554" cy="618" r="13" fill="#071520" opacity="0.40"/><rect x="542" y="631" width="25" height="30" rx="13" fill="#071520" opacity="0.40"/><circle cx="634" cy="618" r="13" fill="#071520" opacity="0.40"/><rect x="621" y="631" width="25" height="30" rx="13" fill="#071520" opacity="0.40"/><circle cx="717" cy="618" r="13" fill="#071520" opacity="0.40"/><rect x="704" y="631" width="25" height="30" rx="13" fill="#071520" opacity="0.40"/><circle cx="805" cy="618" r="13" fill="#071520" opacity="0.40"/><rect x="792" y="631" width="25" height="30" rx="13" fill="#071520" opacity="0.40"/><circle cx="875" cy="618" r="13" fill="#071520" opacity="0.40"/><rect x="862" y="631" width="25" height="30" rx="13" fill="#071520" opacity="0.40"/><circle cx="961" cy="618" r="13" fill="#071520" opacity="0.40"/><rect x="949" y="631" width="25" height="30" rx="13" fill="#071520" opacity="0.40"/><circle cx="1042" cy="618" r="13" fill="#071520" opacity="0.40"/><rect x="1030" y="631" width="25" height="30" rx="13" fill="#071520" opacity="0.40"/><circle cx="1118" cy="618" r="13" fill="#071520" opacity="0.40"/><rect x="1105" y="631" width="25" height="30" rx="13" fill="#071520" opacity="0.40"/><circle cx="1201" cy="618" r="13" fill="#071520" opacity="0.40"/><rect x="1188" y="631" width="25" height="30" rx="13" fill="#071520" opacity="0.40"/><circle cx="1273" cy="618" r="13" fill="#071520" opacity="0.40"/><rect x="1260" y="631" width="25" height="30" rx="13" fill="#071520" opacity="0.40"/><circle cx="1353" cy="618" r="13" fill="#071520" opacity="0.40"/><rect x="1340" y="631" width="25" height="30" rx="13" fill="#071520" opacity="0.40"/><circle cx="1435" cy="618" r="13" fill="#071520" opacity="0.40"/><rect x="1423" y="631" width="25" height="30" rx="13" fill="#071520" opacity="0.40"/><circle cx="1523" cy="618" r="13" fill="#071520" opacity="0.40"/><rect x="1510" y="631" width="25" height="30" rx="13" fill="#071520" opacity="0.40"/><circle cx="75" cy="676" r="15" fill="#071520" opacity="0.45"/><rect x="60" y="691" width="30" height="36" rx="15" fill="#071520" opacity="0.45"/><circle cx="149" cy="676" r="15" fill="#071520" opacity="0.45"/><rect x="134" y="691" width="30" height="36" rx="15" fill="#071520" opacity="0.45"/><circle cx="230" cy="676" r="15" fill="#071520" opacity="0.45"/><rect x="215" y="691" width="30" height="36" rx="15" fill="#071520" opacity="0.45"/><circle cx="304" cy="676" r="15" fill="#071520" opacity="0.45"/><rect x="289" y="691" width="30" height="36" rx="15" fill="#071520" opacity="0.45"/><circle cx="378" cy="676" r="15" fill="#071520" opacity="0.45"/><rect x="363" y="691" width="30" height="36" rx="15" fill="#071520" opacity="0.45"/><circle cx="462" cy="676" r="15" fill="#071520" opacity="0.45"/><rect x="447" y="691" width="30" height="36" rx="15" fill="#071520" opacity="0.45"/><circle cx="537" cy="676" r="15" fill="#071520" opacity="0.45"/><rect x="521" y="691" width="30" height="36" rx="15" fill="#071520" opacity="0.45"/><circle cx="605" cy="676" r="15" fill="#071520" opacity="0.45"/><rect x="590" y="691" width="30" height="36" rx="15" fill="#071520" opacity="0.45"/><circle cx="687" cy="676" r="15" fill="#071520" opacity="0.45"/><rect x="672" y="691" width="30" height="36" rx="15" fill="#071520" opacity="0.45"/><circle cx="762" cy="676" r="15" fill="#071520" opacity="0.45"/><rect x="747" y="691" width="30" height="36" rx="15" fill="#071520" opacity="0.45"/><circle cx="844" cy="676" r="15" fill="#071520" opacity="0.45"/><rect x="829" y="691" width="30" height="36" rx="15" fill="#071520" opacity="0.45"/><circle cx="918" cy="676" r="15" fill="#071520" opacity="0.45"/><rect x="903" y="691" width="30" height="36" rx="15" fill="#071520" opacity="0.45"/><circle cx="987" cy="676" r="15" fill="#071520" opacity="0.45"/><rect x="972" y="691" width="30" height="36" rx="15" fill="#071520" opacity="0.45"/><circle cx="1074" cy="676" r="15" fill="#071520" opacity="0.45"/><rect x="1059" y="691" width="30" height="36" rx="15" fill="#071520" opacity="0.45"/><circle cx="1137" cy="676" r="15" fill="#071520" opacity="0.45"/><rect x="1122" y="691" width="30" height="36" rx="15" fill="#071520" opacity="0.45"/><circle cx="1218" cy="676" r="15" fill="#071520" opacity="0.45"/><rect x="1203" y="691" width="30" height="36" rx="15" fill="#071520" opacity="0.45"/><circle cx="1299" cy="676" r="15" fill="#071520" opacity="0.45"/><rect x="1284" y="691" width="30" height="36" rx="15" fill="#071520" opacity="0.45"/><circle cx="1366" cy="676" r="15" fill="#071520" opacity="0.45"/><rect x="1351" y="691" width="30" height="36" rx="15" fill="#071520" opacity="0.45"/><circle cx="1447" cy="676" r="15" fill="#071520" opacity="0.45"/><rect x="1432" y="691" width="30" height="36" rx="15" fill="#071520" opacity="0.45"/><circle cx="1516" cy="676" r="15" fill="#071520" opacity="0.45"/><rect x="1501" y="691" width="30" height="36" rx="15" fill="#071520" opacity="0.45"/><circle cx="75" cy="734" r="18" fill="#071520" opacity="0.50"/><rect x="58" y="752" width="36" height="43" rx="18" fill="#071520" opacity="0.50"/><circle cx="150" cy="734" r="18" fill="#071520" opacity="0.50"/><rect x="132" y="752" width="36" height="43" rx="18" fill="#071520" opacity="0.50"/><circle cx="219" cy="734" r="18" fill="#071520" opacity="0.50"/><rect x="202" y="752" width="36" height="43" rx="18" fill="#071520" opacity="0.50"/><circle cx="297" cy="734" r="18" fill="#071520" opacity="0.50"/><rect x="279" y="752" width="36" height="43" rx="18" fill="#071520" opacity="0.50"/><circle cx="361" cy="734" r="18" fill="#071520" opacity="0.50"/><rect x="343" y="752" width="36" height="43" rx="18" fill="#071520" opacity="0.50"/><circle cx="439" cy="734" r="18" fill="#071520" opacity="0.50"/><rect x="422" y="752" width="36" height="43" rx="18" fill="#071520" opacity="0.50"/><circle cx="511" cy="734" r="18" fill="#071520" opacity="0.50"/><rect x="493" y="752" width="36" height="43" rx="18" fill="#071520" opacity="0.50"/><circle cx="583" cy="734" r="18" fill="#071520" opacity="0.50"/><rect x="565" y="752" width="36" height="43" rx="18" fill="#071520" opacity="0.50"/><circle cx="654" cy="734" r="18" fill="#071520" opacity="0.50"/><rect x="636" y="752" width="36" height="43" rx="18" fill="#071520" opacity="0.50"/><circle cx="733" cy="734" r="18" fill="#071520" opacity="0.50"/><rect x="715" y="752" width="36" height="43" rx="18" fill="#071520" opacity="0.50"/><circle cx="807" cy="734" r="18" fill="#071520" opacity="0.50"/><rect x="789" y="752" width="36" height="43" rx="18" fill="#071520" opacity="0.50"/><circle cx="872" cy="734" r="18" fill="#071520" opacity="0.50"/><rect x="855" y="752" width="36" height="43" rx="18" fill="#071520" opacity="0.50"/><circle cx="948" cy="734" r="18" fill="#071520" opacity="0.50"/><rect x="930" y="752" width="36" height="43" rx="18" fill="#071520" opacity="0.50"/><circle cx="1011" cy="734" r="18" fill="#071520" opacity="0.50"/><rect x="993" y="752" width="36" height="43" rx="18" fill="#071520" opacity="0.50"/><circle cx="1094" cy="734" r="18" fill="#071520" opacity="0.50"/><rect x="1076" y="752" width="36" height="43" rx="18" fill="#071520" opacity="0.50"/><circle cx="1166" cy="734" r="18" fill="#071520" opacity="0.50"/><rect x="1148" y="752" width="36" height="43" rx="18" fill="#071520" opacity="0.50"/><circle cx="1244" cy="734" r="18" fill="#071520" opacity="0.50"/><rect x="1226" y="752" width="36" height="43" rx="18" fill="#071520" opacity="0.50"/><circle cx="1314" cy="734" r="18" fill="#071520" opacity="0.50"/><rect x="1296" y="752" width="36" height="43" rx="18" fill="#071520" opacity="0.50"/><circle cx="1378" cy="734" r="18" fill="#071520" opacity="0.50"/><rect x="1361" y="752" width="36" height="43" rx="18" fill="#071520" opacity="0.50"/><circle cx="1453" cy="734" r="18" fill="#071520" opacity="0.50"/><rect x="1435" y="752" width="36" height="43" rx="18" fill="#071520" opacity="0.50"/><circle cx="1530" cy="734" r="18" fill="#071520" opacity="0.50"/><rect x="1512" y="752" width="36" height="43" rx="18" fill="#071520" opacity="0.50"/><circle cx="62" cy="792" r="20" fill="#071520" opacity="0.55"/><rect x="42" y="812" width="41" height="49" rx="20" fill="#071520" opacity="0.55"/><circle cx="139" cy="792" r="20" fill="#071520" opacity="0.55"/><rect x="118" y="812" width="41" height="49" rx="20" fill="#071520" opacity="0.55"/><circle cx="203" cy="792" r="20" fill="#071520" opacity="0.55"/><rect x="183" y="812" width="41" height="49" rx="20" fill="#071520" opacity="0.55"/><circle cx="272" cy="792" r="20" fill="#071520" opacity="0.55"/><rect x="252" y="812" width="41" height="49" rx="20" fill="#071520" opacity="0.55"/><circle cx="341" cy="792" r="20" fill="#071520" opacity="0.55"/><rect x="320" y="812" width="41" height="49" rx="20" fill="#071520" opacity="0.55"/><circle cx="422" cy="792" r="20" fill="#071520" opacity="0.55"/><rect x="401" y="812" width="41" height="49" rx="20" fill="#071520" opacity="0.55"/><circle cx="481" cy="792" r="20" fill="#071520" opacity="0.55"/><rect x="461" y="812" width="41" height="49" rx="20" fill="#071520" opacity="0.55"/><circle cx="552" cy="792" r="20" fill="#071520" opacity="0.55"/><rect x="532" y="812" width="41" height="49" rx="20" fill="#071520" opacity="0.55"/><circle cx="624" cy="792" r="20" fill="#071520" opacity="0.55"/><rect x="604" y="812" width="41" height="49" rx="20" fill="#071520" opacity="0.55"/><circle cx="702" cy="792" r="20" fill="#071520" opacity="0.55"/><rect x="681" y="812" width="41" height="49" rx="20" fill="#071520" opacity="0.55"/><circle cx="759" cy="792" r="20" fill="#071520" opacity="0.55"/><rect x="738" y="812" width="41" height="49" rx="20" fill="#071520" opacity="0.55"/><circle cx="834" cy="792" r="20" fill="#071520" opacity="0.55"/><rect x="814" y="812" width="41" height="49" rx="20" fill="#071520" opacity="0.55"/><circle cx="905" cy="792" r="20" fill="#071520" opacity="0.55"/><rect x="885" y="812" width="41" height="49" rx="20" fill="#071520" opacity="0.55"/><circle cx="980" cy="792" r="20" fill="#071520" opacity="0.55"/><rect x="960" y="812" width="41" height="49" rx="20" fill="#071520" opacity="0.55"/><circle cx="1049" cy="792" r="20" fill="#071520" opacity="0.55"/><rect x="1028" y="812" width="41" height="49" rx="20" fill="#071520" opacity="0.55"/><circle cx="1119" cy="792" r="20" fill="#071520" opacity="0.55"/><rect x="1098" y="812" width="41" height="49" rx="20" fill="#071520" opacity="0.55"/><circle cx="1179" cy="792" r="20" fill="#071520" opacity="0.55"/><rect x="1159" y="812" width="41" height="49" rx="20" fill="#071520" opacity="0.55"/><circle cx="1251" cy="792" r="20" fill="#071520" opacity="0.55"/><rect x="1230" y="812" width="41" height="49" rx="20" fill="#071520" opacity="0.55"/><circle cx="1319" cy="792" r="20" fill="#071520" opacity="0.55"/><rect x="1299" y="812" width="41" height="49" rx="20" fill="#071520" opacity="0.55"/><circle cx="1397" cy="792" r="20" fill="#071520" opacity="0.55"/><rect x="1377" y="812" width="41" height="49" rx="20" fill="#071520" opacity="0.55"/><circle cx="1468" cy="792" r="20" fill="#071520" opacity="0.55"/><rect x="1448" y="812" width="41" height="49" rx="20" fill="#071520" opacity="0.55"/><circle cx="1525" cy="792" r="20" fill="#071520" opacity="0.55"/><rect x="1504" y="812" width="41" height="49" rx="20" fill="#071520" opacity="0.55"/><circle cx="61" cy="850" r="23" fill="#071520" opacity="0.60"/><rect x="38" y="873" width="46" height="55" rx="23" fill="#071520" opacity="0.60"/><circle cx="129" cy="850" r="23" fill="#071520" opacity="0.60"/><rect x="106" y="873" width="46" height="55" rx="23" fill="#071520" opacity="0.60"/><circle cx="196" cy="850" r="23" fill="#071520" opacity="0.60"/><rect x="173" y="873" width="46" height="55" rx="23" fill="#071520" opacity="0.60"/><circle cx="266" cy="850" r="23" fill="#071520" opacity="0.60"/><rect x="243" y="873" width="46" height="55" rx="23" fill="#071520" opacity="0.60"/><circle cx="335" cy="850" r="23" fill="#071520" opacity="0.60"/><rect x="312" y="873" width="46" height="55" rx="23" fill="#071520" opacity="0.60"/><circle cx="396" cy="850" r="23" fill="#071520" opacity="0.60"/><rect x="373" y="873" width="46" height="55" rx="23" fill="#071520" opacity="0.60"/><circle cx="459" cy="850" r="23" fill="#071520" opacity="0.60"/><rect x="436" y="873" width="46" height="55" rx="23" fill="#071520" opacity="0.60"/><circle cx="532" cy="850" r="23" fill="#071520" opacity="0.60"/><rect x="509" y="873" width="46" height="55" rx="23" fill="#071520" opacity="0.60"/><circle cx="598" cy="850" r="23" fill="#071520" opacity="0.60"/><rect x="575" y="873" width="46" height="55" rx="23" fill="#071520" opacity="0.60"/><circle cx="668" cy="850" r="23" fill="#071520" opacity="0.60"/><rect x="645" y="873" width="46" height="55" rx="23" fill="#071520" opacity="0.60"/><circle cx="741" cy="850" r="23" fill="#071520" opacity="0.60"/><rect x="718" y="873" width="46" height="55" rx="23" fill="#071520" opacity="0.60"/><circle cx="803" cy="850" r="23" fill="#071520" opacity="0.60"/><rect x="780" y="873" width="46" height="55" rx="23" fill="#071520" opacity="0.60"/><circle cx="867" cy="850" r="23" fill="#071520" opacity="0.60"/><rect x="844" y="873" width="46" height="55" rx="23" fill="#071520" opacity="0.60"/><circle cx="935" cy="850" r="23" fill="#071520" opacity="0.60"/><rect x="912" y="873" width="46" height="55" rx="23" fill="#071520" opacity="0.60"/><circle cx="1003" cy="850" r="23" fill="#071520" opacity="0.60"/><rect x="980" y="873" width="46" height="55" rx="23" fill="#071520" opacity="0.60"/><circle cx="1060" cy="850" r="23" fill="#071520" opacity="0.60"/><rect x="1037" y="873" width="46" height="55" rx="23" fill="#071520" opacity="0.60"/><circle cx="1140" cy="850" r="23" fill="#071520" opacity="0.60"/><rect x="1117" y="873" width="46" height="55" rx="23" fill="#071520" opacity="0.60"/><circle cx="1204" cy="850" r="23" fill="#071520" opacity="0.60"/><rect x="1181" y="873" width="46" height="55" rx="23" fill="#071520" opacity="0.60"/><circle cx="1273" cy="850" r="23" fill="#071520" opacity="0.60"/><rect x="1250" y="873" width="46" height="55" rx="23" fill="#071520" opacity="0.60"/><circle cx="1338" cy="850" r="23" fill="#071520" opacity="0.60"/><rect x="1315" y="873" width="46" height="55" rx="23" fill="#071520" opacity="0.60"/><circle cx="1398" cy="850" r="23" fill="#071520" opacity="0.60"/><rect x="1375" y="873" width="46" height="55" rx="23" fill="#071520" opacity="0.60"/><circle cx="1465" cy="850" r="23" fill="#071520" opacity="0.60"/><rect x="1442" y="873" width="46" height="55" rx="23" fill="#071520" opacity="0.60"/><circle cx="1527" cy="850" r="23" fill="#071520" opacity="0.60"/><rect x="1504" y="873" width="46" height="55" rx="23" fill="#071520" opacity="0.60"/><circle cx="66" cy="908" r="26" fill="#071520" opacity="0.65"/><rect x="41" y="934" width="51" height="61" rx="26" fill="#071520" opacity="0.65"/><circle cx="121" cy="908" r="26" fill="#071520" opacity="0.65"/><rect x="95" y="934" width="51" height="61" rx="26" fill="#071520" opacity="0.65"/><circle cx="185" cy="908" r="26" fill="#071520" opacity="0.65"/><rect x="159" y="934" width="51" height="61" rx="26" fill="#071520" opacity="0.65"/><circle cx="251" cy="908" r="26" fill="#071520" opacity="0.65"/><rect x="226" y="934" width="51" height="61" rx="26" fill="#071520" opacity="0.65"/><circle cx="315" cy="908" r="26" fill="#071520" opacity="0.65"/><rect x="289" y="934" width="51" height="61" rx="26" fill="#071520" opacity="0.65"/><circle cx="381" cy="908" r="26" fill="#071520" opacity="0.65"/><rect x="356" y="934" width="51" height="61" rx="26" fill="#071520" opacity="0.65"/><circle cx="441" cy="908" r="26" fill="#071520" opacity="0.65"/><rect x="415" y="934" width="51" height="61" rx="26" fill="#071520" opacity="0.65"/><circle cx="504" cy="908" r="26" fill="#071520" opacity="0.65"/><rect x="478" y="934" width="51" height="61" rx="26" fill="#071520" opacity="0.65"/><circle cx="570" cy="908" r="26" fill="#071520" opacity="0.65"/><rect x="545" y="934" width="51" height="61" rx="26" fill="#071520" opacity="0.65"/><circle cx="634" cy="908" r="26" fill="#071520" opacity="0.65"/><rect x="608" y="934" width="51" height="61" rx="26" fill="#071520" opacity="0.65"/><circle cx="702" cy="908" r="26" fill="#071520" opacity="0.65"/><rect x="676" y="934" width="51" height="61" rx="26" fill="#071520" opacity="0.65"/><circle cx="760" cy="908" r="26" fill="#071520" opacity="0.65"/><rect x="735" y="934" width="51" height="61" rx="26" fill="#071520" opacity="0.65"/><circle cx="838" cy="908" r="26" fill="#071520" opacity="0.65"/><rect x="812" y="934" width="51" height="61" rx="26" fill="#071520" opacity="0.65"/><circle cx="898" cy="908" r="26" fill="#071520" opacity="0.65"/><rect x="872" y="934" width="51" height="61" rx="26" fill="#071520" opacity="0.65"/><circle cx="954" cy="908" r="26" fill="#071520" opacity="0.65"/><rect x="929" y="934" width="51" height="61" rx="26" fill="#071520" opacity="0.65"/><circle cx="1020" cy="908" r="26" fill="#071520" opacity="0.65"/><rect x="994" y="934" width="51" height="61" rx="26" fill="#071520" opacity="0.65"/><circle cx="1086" cy="908" r="26" fill="#071520" opacity="0.65"/><rect x="1060" y="934" width="51" height="61" rx="26" fill="#071520" opacity="0.65"/><circle cx="1150" cy="908" r="26" fill="#071520" opacity="0.65"/><rect x="1124" y="934" width="51" height="61" rx="26" fill="#071520" opacity="0.65"/><circle cx="1210" cy="908" r="26" fill="#071520" opacity="0.65"/><rect x="1184" y="934" width="51" height="61" rx="26" fill="#071520" opacity="0.65"/><circle cx="1286" cy="908" r="26" fill="#071520" opacity="0.65"/><rect x="1260" y="934" width="51" height="61" rx="26" fill="#071520" opacity="0.65"/><circle cx="1352" cy="908" r="26" fill="#071520" opacity="0.65"/><rect x="1326" y="934" width="51" height="61" rx="26" fill="#071520" opacity="0.65"/><circle cx="1407" cy="908" r="26" fill="#071520" opacity="0.65"/><rect x="1382" y="934" width="51" height="61" rx="26" fill="#071520" opacity="0.65"/><circle cx="1472" cy="908" r="26" fill="#071520" opacity="0.65"/><rect x="1446" y="934" width="51" height="61" rx="26" fill="#071520" opacity="0.65"/><circle cx="1529" cy="908" r="26" fill="#071520" opacity="0.65"/><rect x="1504" y="934" width="51" height="61" rx="26" fill="#071520" opacity="0.65"/><circle cx="55" cy="966" r="28" fill="#071520" opacity="0.70"/><rect x="27" y="994" width="56" height="68" rx="28" fill="#071520" opacity="0.70"/><circle cx="121" cy="966" r="28" fill="#071520" opacity="0.70"/><rect x="92" y="994" width="56" height="68" rx="28" fill="#071520" opacity="0.70"/><circle cx="181" cy="966" r="28" fill="#071520" opacity="0.70"/><rect x="153" y="994" width="56" height="68" rx="28" fill="#071520" opacity="0.70"/><circle cx="251" cy="966" r="28" fill="#071520" opacity="0.70"/><rect x="223" y="994" width="56" height="68" rx="28" fill="#071520" opacity="0.70"/><circle cx="302" cy="966" r="28" fill="#071520" opacity="0.70"/><rect x="274" y="994" width="56" height="68" rx="28" fill="#071520" opacity="0.70"/><circle cx="362" cy="966" r="28" fill="#071520" opacity="0.70"/><rect x="333" y="994" width="56" height="68" rx="28" fill="#071520" opacity="0.70"/><circle cx="438" cy="966" r="28" fill="#071520" opacity="0.70"/><rect x="410" y="994" width="56" height="68" rx="28" fill="#071520" opacity="0.70"/><circle cx="493" cy="966" r="28" fill="#071520" opacity="0.70"/><rect x="465" y="994" width="56" height="68" rx="28" fill="#071520" opacity="0.70"/><circle cx="548" cy="966" r="28" fill="#071520" opacity="0.70"/><rect x="520" y="994" width="56" height="68" rx="28" fill="#071520" opacity="0.70"/><circle cx="616" cy="966" r="28" fill="#071520" opacity="0.70"/><rect x="588" y="994" width="56" height="68" rx="28" fill="#071520" opacity="0.70"/><circle cx="669" cy="966" r="28" fill="#071520" opacity="0.70"/><rect x="641" y="994" width="56" height="68" rx="28" fill="#071520" opacity="0.70"/><circle cx="739" cy="966" r="28" fill="#071520" opacity="0.70"/><rect x="711" y="994" width="56" height="68" rx="28" fill="#071520" opacity="0.70"/><circle cx="808" cy="966" r="28" fill="#071520" opacity="0.70"/><rect x="779" y="994" width="56" height="68" rx="28" fill="#071520" opacity="0.70"/><circle cx="867" cy="966" r="28" fill="#071520" opacity="0.70"/><rect x="839" y="994" width="56" height="68" rx="28" fill="#071520" opacity="0.70"/><circle cx="926" cy="966" r="28" fill="#071520" opacity="0.70"/><rect x="898" y="994" width="56" height="68" rx="28" fill="#071520" opacity="0.70"/><circle cx="981" cy="966" r="28" fill="#071520" opacity="0.70"/><rect x="953" y="994" width="56" height="68" rx="28" fill="#071520" opacity="0.70"/><circle cx="1044" cy="966" r="28" fill="#071520" opacity="0.70"/><rect x="1016" y="994" width="56" height="68" rx="28" fill="#071520" opacity="0.70"/><circle cx="1102" cy="966" r="28" fill="#071520" opacity="0.70"/><rect x="1074" y="994" width="56" height="68" rx="28" fill="#071520" opacity="0.70"/><circle cx="1174" cy="966" r="28" fill="#071520" opacity="0.70"/><rect x="1145" y="994" width="56" height="68" rx="28" fill="#071520" opacity="0.70"/><circle cx="1231" cy="966" r="28" fill="#071520" opacity="0.70"/><rect x="1203" y="994" width="56" height="68" rx="28" fill="#071520" opacity="0.70"/><circle cx="1297" cy="966" r="28" fill="#071520" opacity="0.70"/><rect x="1269" y="994" width="56" height="68" rx="28" fill="#071520" opacity="0.70"/><circle cx="1351" cy="966" r="28" fill="#071520" opacity="0.70"/><rect x="1323" y="994" width="56" height="68" rx="28" fill="#071520" opacity="0.70"/><circle cx="1411" cy="966" r="28" fill="#071520" opacity="0.70"/><rect x="1383" y="994" width="56" height="68" rx="28" fill="#071520" opacity="0.70"/><circle cx="1482" cy="966" r="28" fill="#071520" opacity="0.70"/><rect x="1454" y="994" width="56" height="68" rx="28" fill="#071520" opacity="0.70"/><circle cx="1546" cy="966" r="28" fill="#071520" opacity="0.70"/><rect x="1518" y="994" width="56" height="68" rx="28" fill="#071520" opacity="0.70"/><circle cx="65" cy="1024" r="31" fill="#071520" opacity="0.75"/><rect x="34" y="1055" width="62" height="74" rx="31" fill="#071520" opacity="0.75"/><circle cx="123" cy="1024" r="31" fill="#071520" opacity="0.75"/><rect x="93" y="1055" width="62" height="74" rx="31" fill="#071520" opacity="0.75"/><circle cx="183" cy="1024" r="31" fill="#071520" opacity="0.75"/><rect x="152" y="1055" width="62" height="74" rx="31" fill="#071520" opacity="0.75"/><circle cx="241" cy="1024" r="31" fill="#071520" opacity="0.75"/><rect x="210" y="1055" width="62" height="74" rx="31" fill="#071520" opacity="0.75"/><circle cx="292" cy="1024" r="31" fill="#071520" opacity="0.75"/><rect x="261" y="1055" width="62" height="74" rx="31" fill="#071520" opacity="0.75"/><circle cx="356" cy="1024" r="31" fill="#071520" opacity="0.75"/><rect x="325" y="1055" width="62" height="74" rx="31" fill="#071520" opacity="0.75"/><circle cx="413" cy="1024" r="31" fill="#071520" opacity="0.75"/><rect x="382" y="1055" width="62" height="74" rx="31" fill="#071520" opacity="0.75"/><circle cx="467" cy="1024" r="31" fill="#071520" opacity="0.75"/><rect x="436" y="1055" width="62" height="74" rx="31" fill="#071520" opacity="0.75"/><circle cx="526" cy="1024" r="31" fill="#071520" opacity="0.75"/><rect x="495" y="1055" width="62" height="74" rx="31" fill="#071520" opacity="0.75"/><circle cx="589" cy="1024" r="31" fill="#071520" opacity="0.75"/><rect x="558" y="1055" width="62" height="74" rx="31" fill="#071520" opacity="0.75"/><circle cx="648" cy="1024" r="31" fill="#071520" opacity="0.75"/><rect x="617" y="1055" width="62" height="74" rx="31" fill="#071520" opacity="0.75"/><circle cx="714" cy="1024" r="31" fill="#071520" opacity="0.75"/><rect x="683" y="1055" width="62" height="74" rx="31" fill="#071520" opacity="0.75"/><circle cx="778" cy="1024" r="31" fill="#071520" opacity="0.75"/><rect x="747" y="1055" width="62" height="74" rx="31" fill="#071520" opacity="0.75"/><circle cx="829" cy="1024" r="31" fill="#071520" opacity="0.75"/><rect x="798" y="1055" width="62" height="74" rx="31" fill="#071520" opacity="0.75"/><circle cx="896" cy="1024" r="31" fill="#071520" opacity="0.75"/><rect x="865" y="1055" width="62" height="74" rx="31" fill="#071520" opacity="0.75"/><circle cx="956" cy="1024" r="31" fill="#071520" opacity="0.75"/><rect x="925" y="1055" width="62" height="74" rx="31" fill="#071520" opacity="0.75"/><circle cx="1015" cy="1024" r="31" fill="#071520" opacity="0.75"/><rect x="984" y="1055" width="62" height="74" rx="31" fill="#071520" opacity="0.75"/><circle cx="1065" cy="1024" r="31" fill="#071520" opacity="0.75"/><rect x="1034" y="1055" width="62" height="74" rx="31" fill="#071520" opacity="0.75"/><circle cx="1121" cy="1024" r="31" fill="#071520" opacity="0.75"/><rect x="1091" y="1055" width="62" height="74" rx="31" fill="#071520" opacity="0.75"/><circle cx="1181" cy="1024" r="31" fill="#071520" opacity="0.75"/><rect x="1150" y="1055" width="62" height="74" rx="31" fill="#071520" opacity="0.75"/><circle cx="1240" cy="1024" r="31" fill="#071520" opacity="0.75"/><rect x="1209" y="1055" width="62" height="74" rx="31" fill="#071520" opacity="0.75"/><circle cx="1299" cy="1024" r="31" fill="#071520" opacity="0.75"/><rect x="1268" y="1055" width="62" height="74" rx="31" fill="#071520" opacity="0.75"/><circle cx="1365" cy="1024" r="31" fill="#071520" opacity="0.75"/><rect x="1334" y="1055" width="62" height="74" rx="31" fill="#071520" opacity="0.75"/><circle cx="1429" cy="1024" r="31" fill="#071520" opacity="0.75"/><rect x="1398" y="1055" width="62" height="74" rx="31" fill="#071520" opacity="0.75"/><circle cx="1487" cy="1024" r="31" fill="#071520" opacity="0.75"/><rect x="1456" y="1055" width="62" height="74" rx="31" fill="#071520" opacity="0.75"/><circle cx="1540" cy="1024" r="31" fill="#071520" opacity="0.75"/><rect x="1510" y="1055" width="62" height="74" rx="31" fill="#071520" opacity="0.75"/><circle cx="60" cy="1082" r="33" fill="#071520" opacity="0.80"/><rect x="26" y="1115" width="67" height="80" rx="33" fill="#071520" opacity="0.80"/><circle cx="119" cy="1082" r="33" fill="#071520" opacity="0.80"/><rect x="86" y="1115" width="67" height="80" rx="33" fill="#071520" opacity="0.80"/><circle cx="165" cy="1082" r="33" fill="#071520" opacity="0.80"/><rect x="131" y="1115" width="67" height="80" rx="33" fill="#071520" opacity="0.80"/><circle cx="231" cy="1082" r="33" fill="#071520" opacity="0.80"/><rect x="198" y="1115" width="67" height="80" rx="33" fill="#071520" opacity="0.80"/><circle cx="292" cy="1082" r="33" fill="#071520" opacity="0.80"/><rect x="259" y="1115" width="67" height="80" rx="33" fill="#071520" opacity="0.80"/><circle cx="347" cy="1082" r="33" fill="#071520" opacity="0.80"/><rect x="314" y="1115" width="67" height="80" rx="33" fill="#071520" opacity="0.80"/><circle cx="404" cy="1082" r="33" fill="#071520" opacity="0.80"/><rect x="371" y="1115" width="67" height="80" rx="33" fill="#071520" opacity="0.80"/><circle cx="457" cy="1082" r="33" fill="#071520" opacity="0.80"/><rect x="423" y="1115" width="67" height="80" rx="33" fill="#071520" opacity="0.80"/><circle cx="509" cy="1082" r="33" fill="#071520" opacity="0.80"/><rect x="476" y="1115" width="67" height="80" rx="33" fill="#071520" opacity="0.80"/><circle cx="576" cy="1082" r="33" fill="#071520" opacity="0.80"/><rect x="543" y="1115" width="67" height="80" rx="33" fill="#071520" opacity="0.80"/><circle cx="626" cy="1082" r="33" fill="#071520" opacity="0.80"/><rect x="592" y="1115" width="67" height="80" rx="33" fill="#071520" opacity="0.80"/><circle cx="691" cy="1082" r="33" fill="#071520" opacity="0.80"/><rect x="657" y="1115" width="67" height="80" rx="33" fill="#071520" opacity="0.80"/><circle cx="750" cy="1082" r="33" fill="#071520" opacity="0.80"/><rect x="717" y="1115" width="67" height="80" rx="33" fill="#071520" opacity="0.80"/><circle cx="798" cy="1082" r="33" fill="#071520" opacity="0.80"/><rect x="765" y="1115" width="67" height="80" rx="33" fill="#071520" opacity="0.80"/><circle cx="856" cy="1082" r="33" fill="#071520" opacity="0.80"/><rect x="822" y="1115" width="67" height="80" rx="33" fill="#071520" opacity="0.80"/><circle cx="921" cy="1082" r="33" fill="#071520" opacity="0.80"/><rect x="888" y="1115" width="67" height="80" rx="33" fill="#071520" opacity="0.80"/><circle cx="975" cy="1082" r="33" fill="#071520" opacity="0.80"/><rect x="942" y="1115" width="67" height="80" rx="33" fill="#071520" opacity="0.80"/><circle cx="1023" cy="1082" r="33" fill="#071520" opacity="0.80"/><rect x="990" y="1115" width="67" height="80" rx="33" fill="#071520" opacity="0.80"/><circle cx="1080" cy="1082" r="33" fill="#071520" opacity="0.80"/><rect x="1046" y="1115" width="67" height="80" rx="33" fill="#071520" opacity="0.80"/><circle cx="1137" cy="1082" r="33" fill="#071520" opacity="0.80"/><rect x="1104" y="1115" width="67" height="80" rx="33" fill="#071520" opacity="0.80"/><circle cx="1206" cy="1082" r="33" fill="#071520" opacity="0.80"/><rect x="1173" y="1115" width="67" height="80" rx="33" fill="#071520" opacity="0.80"/><circle cx="1262" cy="1082" r="33" fill="#071520" opacity="0.80"/><rect x="1229" y="1115" width="67" height="80" rx="33" fill="#071520" opacity="0.80"/><circle cx="1309" cy="1082" r="33" fill="#071520" opacity="0.80"/><rect x="1275" y="1115" width="67" height="80" rx="33" fill="#071520" opacity="0.80"/><circle cx="1377" cy="1082" r="33" fill="#071520" opacity="0.80"/><rect x="1343" y="1115" width="67" height="80" rx="33" fill="#071520" opacity="0.80"/><circle cx="1436" cy="1082" r="33" fill="#071520" opacity="0.80"/><rect x="1403" y="1115" width="67" height="80" rx="33" fill="#071520" opacity="0.80"/><circle cx="1488" cy="1082" r="33" fill="#071520" opacity="0.80"/><rect x="1455" y="1115" width="67" height="80" rx="33" fill="#071520" opacity="0.80"/><circle cx="1540" cy="1082" r="33" fill="#071520" opacity="0.80"/><rect x="1507" y="1115" width="67" height="80" rx="33" fill="#071520" opacity="0.80"/>
<g font-family="Inter, Arial, sans-serif">
<rect x="34" y="1122" rx="20" ry="20" width="320" height="44" fill="rgba(7,21,32,.55)"/>
<circle cx="62" cy="1144" r="7" fill="#3BC9D9"/>
<text x="80" y="1150" fill="#EAF1F4" font-size="22" font-weight="600" letter-spacing="1">SAMPLE · event photography</text>
</g></svg>