<svg xmlns="http://www.w3.org/2000/svg" viewBox="0 0 1600 1200" width="1600" height="1200">
<defs><radialGradient id="g3" cx="50%" cy="35%" r="75%"><stop offset="0%" stop-color="#2a3a2e"/><stop offset="50%" stop-color="#0D2233"/><stop offset="100%" stop-color="#071520"/></radialGradient></defs><rect width="1600" height="1200" fill="url(#g3)"/><line x1="120" y1="0" x2="120" y2="120" stroke="#E0B341" stroke-width="1" opacity="0.25"/><circle cx="120" cy="120" r="6" fill="#E0B341" opacity="0.8"/><circle cx="120" cy="120" r="16" fill="#E0B341" opacity="0.18"/><line x1="230" y1="0" x2="230" y2="160" stroke="#E0B341" stroke-width="1" opacity="0.25"/><circle cx="230" cy="160" r="6" fill="#E0B341" opacity="0.8"/><circle cx="230" cy="160" r="16" fill="#E0B341" opacity="0.18"/><line x1="340" y1="0" x2="340" y2="200" stroke="#E0B341" stroke-width="1" opacity="0.25"/><circle cx="340" cy="200" r="6" fill="#E0B341" opacity="0.8"/><circle cx="340" cy="200" r="16" fill="#E0B341" opacity="0.18"/><line x1="450" y1="0" x2="450" y2="120" stroke="#E0B341" stroke-width="1" opacity="0.25"/><circle cx="450" cy="120" r="6" fill="#E0B341" opacity="0.8"/><circle cx="450" cy="120" r="16" fill="#E0B341" opacity="0.18"/><line x1="560" y1="0" x2="560" y2="160" stroke="#E0B341" stroke-width="1" opacity="0.25"/><circle cx="560" cy="160" r="6" fill="#E0B341" opacity="0.8"/><circle cx="560" cy="160" r="16" fill="#E0B341" opacity="0.18"/><line x1="670" y1="0" x2="670" y2="200" stroke="#E0B341" stroke-width="1" opacity="0.25"/><circle cx="670" cy="200" r="6" fill="#E0B341" opacity="0.8"/><circle cx="670" cy="200" r="16" fill="#E0B341" opacity="0.18"/><line x1="780" y1="0" x2="780" y2="120" stroke="#E0B341" stroke-width="1" opacity="0.25"/><circle cx="780" cy="120" r="6" fill="#E0B341" opacity="0.8"/><circle cx="780" cy="120" r="16" fill="#E0B341" opacity="0.18"/><line x1="890" y1="0" x2="890" y2="160" stroke="#E0B341" stroke-width="1" opacity="0.25"/><circle cx="890" cy="160" r="6" fill="#E0B341" opacity="0.8"/><circle cx="890" cy="160" r="16" fill="#E0B341" opacity="0.18"/><line x1="1000" y1="0" x2="1000" y2="200" stroke="#E0B341" stroke-width="1" opacity="0.25"/><circle cx="1000" cy="200" r="6" fill="#E0B341" opacity="0.8"/><circle cx="1000" cy="200" r="16" fill="#E0B341" opacity="0.18"/><line x1="1110" y1="0" x2="1110" y2="120" stroke="#E0B341" stroke-width="1" opacity="0.25"/><circle cx="1110" cy="120" r="6" fill="#E0B341" opacity="0.8"/><circle cx="1110" cy="120" r="16" fill="#E0B341" opacity="0.18"/><line x1="1220" y1="0" x2="1220" y2="160" stroke="#E0B341" stroke-width="1" opacity="0.25"/><circle cx="1220" cy="160" r="6" fill="#E0B341" opacity="0.8"/><circle cx="1220" cy="160" r="16" fill="#E0B341" opacity="0.18"/><line x1="1330" y1="0" x2="1330" y2="200" stroke="#E0B341" stroke-width="1" opacity="0.25"/><circle cx="1330" cy="200" r="6" fill="#E0B341" opacity="0.8"/><circle cx="1330" cy="200" r="16" fill="#E0B341" opacity="0.18"/><line x1="1440" y1="0" x2="1440" y2="120" stroke="#E0B341" stroke-width="1" opacity="0.25"/><circle cx="1440" cy="120" r="6" fill="#E0B341" opacity="0.8"/><circle cx="1440" cy="120" r="16" fill="#E0B341" opacity="0.18"/><line x1="1550" y1="0" x2="1550" y2="160" stroke="#E0B341" stroke-width="1" opacity="0.25"/><circle cx="1550" cy="160" r="6" fill="#E0B341" opacity="0.8"/><circle cx="1550" cy="160" r="16" fill="#E0B341" opacity="0.18"/><ellipse cx="260" cy="560" rx="120" ry="60" fill="#ffffff" opacity="0.07"/><ellipse cx="260" cy="560" rx="120" ry="60" fill="none" stroke="#E0B341" stroke-width="2" opacity="0.25"/><circle cx="260" cy="560" r="10" fill="#E0B341" opacity="0.7"/><circle cx="395" cy="560" r="13" fill="#071520" opacity="0.8"/><circle cx="369" cy="602" r="13" fill="#071520" opacity="0.8"/><circle cx="302" cy="628" r="13" fill="#071520" opacity="0.8"/><circle cx="218" cy="628" r="13" fill="#071520" opacity="0.8"/><circle cx="151" cy="602" r="13" fill="#071520" opacity="0.8"/><circle cx="125" cy="560" r="13" fill="#071520" opacity="0.8"/><circle cx="151" cy="518" r="13" fill="#071520" opacity="0.8"/><circle cx="218" cy="492" r="13" fill="#071520" opacity="0.8"/><circle cx="302" cy="492" r="13" fill="#071520" opacity="0.8"/><circle cx="369" cy="518" r="13" fill="#071520" opacity="0.8"/><ellipse cx="620" cy="560" rx="120" ry="60" fill="#ffffff" opacity="0.07"/><ellipse cx="620" cy="560" rx="120" ry="60" fill="none" stroke="#E0B341" stroke-width="2" opacity="0.25"/><circle cx="620" cy="560" r="10" fill="#E0B341" opacity="0.7"/><circle cx="755" cy="560" r="13" fill="#071520" opacity="0.8"/><circle cx="729" cy="602" r="13" fill="#071520" opacity="0.8"/><circle cx="662" cy="628" r="13" fill="#071520" opacity="0.8"/><circle cx="578" cy="628" r="13" fill="#071520" opacity="0.8"/><circle cx="511" cy="602" r="13" fill="#071520" opacity="0.8"/><circle cx="485" cy="560" r="13" fill="#071520" opacity="0.8"/><circle cx="511" cy="518" r="13" fill="#071520" opacity="0.8"/><circle cx="578" cy="492" r="13" fill="#071520" opacity="0.8"/><circle cx="662" cy="492" r="13" fill="#071520" opacity="0.8"/><circle cx="729" cy="518" r="13" fill="#071520" opacity="0.8"/><ellipse cx="980" cy="560" rx="120" ry="60" fill="#ffffff" opacity="0.07"/><ellipse cx="980" cy="560" rx="120" ry="60" fill="none" stroke="#E0B341" stroke-width="2" opacity="0.25"/><circle cx="980" cy="560" r="10" fill="#E0B341" opacity="0.7"/><circle cx="1115" cy="560" r="13" fill="#071520" opacity="0.8"/><circle cx="1089" cy="602" r="13" fill="#071520" opacity="0.8"/><circle cx="1022" cy="628" r="13" fill="#071520" opacity="0.8"/><circle cx="938" cy="628" r="13" fill="#071520" opacity="0.8"/><circle cx="871" cy="602" r="13" fill="#071520" opacity="0.8"/><circle cx="845" cy="560" r="13" fill="#071520" opacity="0.8"/><circle cx="871" cy="518" r="13" fill="#071520" opacity="0.8"/><circle cx="938" cy="492" r="13" fill="#071520" opacity="0.8"/><circle cx="1022" cy="492" r="13" fill="#071520" opacity="0.8"/><circle cx="1089" cy="518" r="13" fill="#071520" opacity="0.8"/><ellipse cx="1340" cy="560" rx="120" ry="60" fill="#ffffff" opacity="0.07"/><ellipse cx="1340" cy="560" rx="120" ry="60" fill="none" stroke="#E0B341" stroke-width="2" opacity="0.25"/><circle cx="1340" cy="560" r="10" fill="#E0B341" opacity="0.7"/><circle cx="1475" cy="560" r="13" fill="#071520" opacity="0.8"/><circle cx="1449" cy="602" r="13" fill="#071520" opacity="0.8"/><circle cx="1382" cy="628" r="13" fill="#071520" opacity="0.8"/><circle cx="1298" cy="628" r="13" fill="#071520" opacity="0.8"/><circle cx="1231" cy="602" r="13" fill="#071520" opacity="0.8"/><circle cx="1205" cy="560" r="13" fill="#071520" opacity="0.8"/><circle cx="1231" cy="518" r="13" fill="#071520" opacity="0.8"/><circle cx="1298" cy="492" r="13" fill="#071520" opacity="0.8"/><circle cx="1382" cy="492" r="13" fill="#071520" opacity="0.8"/><circle cx="1449" cy="518" r="13" fill="#071520" opacity="0.8"/><ellipse cx="380" cy="760" rx="120" ry="60" fill="#ffffff" opacity="0.07"/><ellipse cx="380" cy="760" rx="120" ry="60" fill="none" stroke="#E0B341" stroke-width="2" opacity="0.25"/><circle cx="380" cy="760" r="10" fill="#E0B341" opacity="0.7"/><circle cx="515" cy="760" r="13" fill="#071520" opacity="0.8"/><circle cx="489" cy="802" r="13" fill="#071520" opacity="0.8"/><circle cx="422" cy="828" r="13" fill="#071520" opacity="0.8"/><circle cx="338" cy="828" r="13" fill="#071520" opacity="0.8"/><circle cx="271" cy="802" r="13" fill="#071520" opacity="0.8"/><circle cx="245" cy="760" r="13" fill="#071520" opacity="0.8"/><circle cx="271" cy="718" r="13" fill="#071520" opacity="0.8"/><circle cx="338" cy="692" r="13" fill="#071520" opacity="0.8"/><circle cx="422" cy="692" r="13" fill="#071520" opacity="0.8"/><circle cx="489" cy="718" r="13" fill="#071520" opacity="0.8"/><ellipse cx="740" cy="760" rx="120" ry="60" fill="#ffffff" opacity="0.07"/><ellipse cx="740" cy="760" rx="120" ry="60" fill="none" stroke="#E0B341" stroke-width="2" opacity="0.25"/><circle cx="740" cy="760" r="10" fill="#E0B341" opacity="0.7"/><circle cx="875" cy="760" r="13" fill="#071520" opacity="0.8"/><circle cx="849" cy="802" r="13" fill="#071520" opacity="0.8"/><circle cx="782" cy="828" r="13" fill="#071520" opacity="0.8"/><circle cx="698" cy="828" r="13" fill="#071520" opacity="0.8"/><circle cx="631" cy="802" r="13" fill="#071520" opacity="0.8"/><circle cx="605" cy="760" r="13" fill="#071520" opacity="0.8"/><circle cx="631" cy="718" r="13" fill="#071520" opacity="0.8"/><circle cx="698" cy="692" r="13" fill="#071520" opacity="0.8"/><circle cx="782" cy="692" r="13" fill="#071520" opacity="0.8"/><circle cx="849" cy="718" r="13" fill="#071520" opacity="0.8"/><ellipse cx="1100" cy="760" rx="120" ry="60" fill="#ffffff" opacity="0.07"/><ellipse cx="1100" cy="760" rx="120" ry="60" fill="none" stroke="#E0B341" stroke-width="2" opacity="0.25"/><circle cx="1100" cy="760" r="10" fill="#E0B341" opacity="0.7"/><circle cx="1235" cy="760" r="13" fill="#071520" opacity="0.8"/><circle cx="1209" cy="802" r="13" fill="#071520" opacity="0.8"/><circle cx="1142" cy="828" r="13" fill="#071520" opacity="0.8"/><circle cx="1058" cy="828" r="13" fill="#071520" opacity="0.8"/><circle cx="991" cy="802" r="13" fill="#071520" opacity="0.8"/><circle cx="965" cy="760" r="13" fill="#071520" opacity="0.8"/><circle cx="991" cy="718" r="13" fill="#071520" opacity="0.8"/><circle cx="1058" cy="692" r="13" fill="#071520" opacity="0.8"/><circle cx="1142" cy="692" r="13" fill="#071520" opacity="0.8"/><circle cx="1209" cy="718" r="13" fill="#071520" opacity="0.8"/><ellipse cx="1460" cy="760" rx="120" ry="60" fill="#ffffff" opacity="0.07"/><ellipse cx="1460" cy="760" rx="120" ry="60" fill="none" stroke="#E0B341" stroke-width="2" opacity="0.25"/><circle cx="1460" cy="760" r="10" fill="#E0B341" opacity="0.7"/><circle cx="1595" cy="760" r="13" fill="#071520" opacity="0.8"/><circle cx="1569" cy="802" r="13" fill="#071520" opacity="0.8"/><circle cx="1502" cy="828" r="13" fill="#071520" opacity="0.8"/><circle cx="1418" cy="828" r="13" fill="#071520" opacity="0.8"/><circle cx="1351" cy="802" r="13" fill="#071520" opacity="0.8"/><circle cx="1325" cy="760" r="13" fill="#071520" opacity="0.8"/><circle cx="1351" cy="718" r="13" fill="#071520" opacity="0.8"/><circle cx="1418" cy="692" r="13" fill="#071520" opacity="0.8"/><circle cx="1502" cy="692" r="13" fill="#071520" opacity="0.8"/><circle cx="1569" cy="718" r="13" fill="#071520" opacity="0.8"/><ellipse cx="260" cy="960" rx="120" ry="60" fill="#ffffff" opacity="0.07"/><ellipse cx="260" cy="960" rx="120" ry="60" fill="none" stroke="#E0B341" stroke-width="2" opacity="0.25"/><circle cx="260" cy="960" r="10" fill="#E0B341" opacity="0.7"/><circle cx="395" cy="960" r="13" fill="#071520" opacity="0.8"/><circle cx="369" cy="1002" r="13" fill="#071520" opacity="0.8"/><circle cx="302" cy="1028" r="13" fill="#071520" opacity="0.8"/><circle cx="218" cy="1028" r="13" fill="#071520" opacity="0.8"/><circle cx="151" cy="1002" r="13" fill="#071520" opacity="0.8"/><circle cx="125" cy="960" r="13" fill="#071520" opacity="0.8"/><circle cx="151" cy="918" r="13" fill="#071520" opacity="0.8"/><circle cx="218" cy="892" r="13" fill="#071520" opacity="0.8"/><circle cx="302" cy="892" r="13" fill="#071520" opacity="0.8"/><circle cx="369" cy="918" r="13" fill="#071520" opacity="0.8"/><ellipse cx="620" cy="960" rx="120" ry="60" fill="#ffffff" opacity="0.07"/><ellipse cx="620" cy="960" rx="120" ry="60" fill="none" stroke="#E0B341" stroke-width="2" opacity="0.25"/><circle cx="620" cy="960" r="10" fill="#E0B341" opacity="0.7"/><circle cx="755" cy="960" r="13" fill="#071520" opacity="0.8"/><circle cx="729" cy="1002" r="13" fill="#071520" opacity="0.8"/><circle cx="662" cy="1028" r="13" fill="#071520" opacity="0.8"/><circle cx="578" cy="1028" r="13" fill="#071520" opacity="0.8"/><circle cx="511" cy="1002" r="13" fill="#071520" opacity="0.8"/><circle cx="485" cy="960" r="13" fill="#071520" opacity="0.8"/><circle cx="511" cy="918" r="13" fill="#071520" opacity="0.8"/><circle cx="578" cy="892" r="13" fill="#071520" opacity="0.8"/><circle cx="662" cy="892" r="13" fill="#071520" opacity="0.8"/><circle cx="729" cy="918" r="13" fill="#071520" opacity="0.8"/><ellipse cx="980" cy="960" rx="120" ry="60" fill="#ffffff" opacity="0.07"/><ellipse cx="980" cy="960" rx="120" ry="60" fill="none" stroke="#E0B341" stroke-width="2" opacity="0.25"/><circle cx="980" cy="960" r="10" fill="#E0B341" opacity="0.7"/><circle cx="1115" cy="960" r="13" fill="#071520" opacity="0.8"/><circle cx="1089" cy="1002" r="13" fill="#071520" opacity="0.8"/><circle cx="1022" cy="1028" r="13" fill="#071520" opacity="0.8"/><circle cx="938" cy="1028" r="13" fill="#071520" opacity="0.8"/><circle cx="871" cy="1002" r="13" fill="#071520" opacity="0.8"/><circle cx="845" cy="960" r="13" fill="#071520" opacity="0.8"/><circle cx="871" cy="918" r="13" fill="#071520" opacity="0.8"/><circle cx="938" cy="892" r="13" fill="#071520" opacity="0.8"/><circle cx="1022" cy="892" r="13" fill="#071520" opacity="0.8"/><circle cx="1089" cy="918" r="13" fill="#071520" opacity="0.8"/><ellipse cx="1340" cy="960" rx="120" ry="60" fill="#ffffff" opacity="0.07"/><ellipse cx="1340" cy="960" rx="120" ry="60" fill="none" stroke="#E0B341" stroke-width="2" opacity="0.25"/><circle cx="1340" cy="960" r="10" fill="#E0B341" opacity="0.7"/><circle cx="1475" cy="960" r="13" fill="#071520" opacity="0.8"/><circle cx="1449" cy="1002" r="13" fill="#071520" opacity="0.8"/><circle cx="1382" cy="1028" r="13" fill="#071520" opacity="0.8"/><circle cx="1298" cy="1028" r="13" fill="#071520" opacity="0.8"/><circle cx="1231" cy="1002" r="13" fill="#071520" opacity="0.8"/><circle cx="1205" cy="960" r="13" fill="#071520" opacity="0.8"/><circle cx="1231" cy="918" r="13" fill="#071520" opacity="0.8"/><circle cx="1298" cy="892" r="13" fill="#071520" opacity="0.8"/><circle cx="1382" cy="892" r="13" fill="#071520" opacity="0.8"/><circle cx="1449" cy="918" r="13" fill="#071520" opacity="0.8"/>
<g font-family="Inter, Arial, sans-serif">
<rect x="34" y="1122" rx="20" ry="20" width="320" height="44" fill="rgba(7,21,32,.55)"/>
<circle cx="62" cy="1144" r="7" fill="#3BC9D9"/>
<text x="80" y="1150" fill="#EAF1F4" font-size="22" font-weight="600" letter-spacing="1">SAMPLE · event photography</text>
</g></svg>